
<svg width="24" height="24" viewBox="0 0 24 24" fill="none" xmlns="http://www.w3.org/2000/svg">
  <mask id="mask0_158389_812" style="mask-type:alpha" maskUnits="userSpaceOnUse" x="0" y="0" width="24" height="24">
    <rect width="24" height="24" fill="#D9D9D9"/>
  </mask>
  <g mask="url(#mask0_158389_812)">
    <path d="M12.7 9.7L15.3 12.3C15.6166 12.6167 15.6875 12.9792 15.5125 13.3875C15.3375 13.7958 15.025 14 14.575 14H9.42498C8.97498 14 8.66248 13.7958 8.48748 13.3875C8.31248 12.9792 8.38331 12.6167 8.69998 12.3L11.3 9.7C11.4 9.6 11.5083 9.525 11.625 9.475C11.7416 9.425 11.8666 9.4 12 9.4C12.1333 9.4 12.2583 9.425 12.375 9.475C12.4916 9.525 12.6 9.6 12.7 9.7Z" fill="#2A3647"/>
  </g>
</svg>
