<?xml version="1.0" encoding="UTF-8" standalone="no"?>
<svg
   width="25"
   height="24"
   viewBox="0 0 25 24"
   fill="none"
   version="1.1"
   id="svg4"
   sodipodi:docname="close-icon-addtask_blue.svg"
   xml:space="preserve"
   inkscape:version="1.2.2 (732a01da63, 2022-12-09)"
   xmlns:inkscape="http://www.inkscape.org/namespaces/inkscape"
   xmlns:sodipodi="http://sodipodi.sourceforge.net/DTD/sodipodi-0.dtd"
   xmlns="http://www.w3.org/2000/svg"
   xmlns:svg="http://www.w3.org/2000/svg"><defs
     id="defs8" /><sodipodi:namedview
     id="namedview6"
     pagecolor="#ffffff"
     bordercolor="#000000"
     borderopacity="0.25"
     inkscape:showpageshadow="2"
     inkscape:pageopacity="0.0"
     inkscape:pagecheckerboard="0"
     inkscape:deskcolor="#d1d1d1"
     showgrid="false"
     inkscape:zoom="16"
     inkscape:cx="10"
     inkscape:cy="21.3125"
     inkscape:window-width="1920"
     inkscape:window-height="1017"
     inkscape:window-x="1912"
     inkscape:window-y="-8"
     inkscape:window-maximized="1"
     inkscape:current-layer="svg4" /><path
     d="M12.2496 11.9998L17.4926 17.2428M7.00659 17.2428L12.2496 11.9998L7.00659 17.2428ZM17.4926 6.75684L12.2486 11.9998L17.4926 6.75684ZM12.2486 11.9998L7.00659 6.75684L12.2486 11.9998Z"
     stroke="#2A3647"
     stroke-width="2"
     stroke-linecap="round"
     stroke-linejoin="round"
     id="path2" /><path
     style="fill:#2a3647;fill-opacity:1;stroke-width:0.0286738"
     d="M 6.7189728,18.182643 C 6.5485317,18.126934 6.4192719,18.040711 6.2804918,17.890152 6.0937639,17.687576 6.0363471,17.536177 6.0367013,17.247312 6.0372527,16.797562 5.8748307,16.987991 8.5129466,14.344086 L 10.8519,12 8.5129466,9.655914 C 5.8748307,7.0120093 6.0372527,7.2024379 6.0367013,6.7526882 6.0364685,6.5628412 6.0501548,6.4790585 6.0986105,6.3736996 6.1857153,6.1843046 6.4010148,5.9648187 6.5914111,5.8713166 6.7291155,5.8036911 6.788312,5.7921147 6.9964158,5.7921147 c 0.4543386,0 0.2394924,-0.1830899 2.8888046,2.4618128 l 2.3583386,2.3544135 2.34417,-2.3390378 c 2.652938,-2.6471293 2.452781,-2.4771885 2.917647,-2.4771885 0.239552,0 0.271077,0.00706 0.439456,0.098347 0.331173,0.1795553 0.500035,0.447576 0.516133,0.819216 0.0079,0.1827055 -0.0029,0.2644046 -0.05318,0.4014337 -0.06086,0.1658862 -0.147383,0.2564433 -2.417842,2.530466 L 13.635218,12 l 2.354726,2.358423 c 2.270459,2.274023 2.356985,2.36458 2.417842,2.530466 0.05076,0.138359 0.06095,0.216955 0.05204,0.401434 -0.01807,0.374252 -0.185476,0.640556 -0.514997,0.819216 -0.168379,0.09129 -0.199904,0.09835 -0.439456,0.09835 -0.464867,0 -0.264699,0.169951 -2.91773,-2.477272 l -2.344254,-2.339121 -2.3439182,2.342552 c -1.9552142,1.954074 -2.3676939,2.353055 -2.4872874,2.405891 -0.1774625,0.0784 -0.5195324,0.09948 -0.6932136,0.04271 z"
     id="path883" /><path
     style="fill:#25c0d4;fill-opacity:1;stroke-width:0.0286738"
     d="M 6.7189728,18.182643 C 6.5485317,18.126934 6.4192719,18.040711 6.2804918,17.890152 6.0937639,17.687576 6.0363471,17.536177 6.0367013,17.247312 6.0372527,16.797562 5.8748307,16.987991 8.5129466,14.344086 L 10.8519,12 8.5129466,9.655914 C 5.8751449,7.0123242 6.0374899,7.202641 6.0364212,6.7526882 6.0359237,6.5432142 6.0471026,6.4860305 6.1159638,6.345804 6.220221,6.133498 6.4574705,5.9160235 6.6739309,5.8343438 6.8057114,5.7846175 6.881776,5.774625 7.0537634,5.7844458 7.4586487,5.8075654 7.3095895,5.6775825 9.8995558,8.2660383 l 2.3440002,2.3426327 2.329835,-2.3266055 c 1.874296,-1.8716989 2.36067,-2.3425479 2.487541,-2.4081406 0.14074,-0.072763 0.18701,-0.081549 0.430107,-0.081672 0.256008,-1.296e-4 0.283318,0.00578 0.453793,0.098209 0.331173,0.1795553 0.500035,0.447576 0.516133,0.819216 0.0079,0.1827055 -0.0029,0.2644046 -0.05318,0.4014337 -0.06086,0.1658862 -0.147383,0.2564433 -2.417842,2.530466 L 13.635218,12 l 2.354726,2.358423 c 2.270459,2.274023 2.356985,2.36458 2.417842,2.530466 0.05027,0.137029 0.06109,0.218728 0.05318,0.401434 -0.0161,0.37164 -0.18496,0.63966 -0.516133,0.819216 -0.170475,0.09243 -0.197785,0.09834 -0.453793,0.09821 -0.243097,-1.14e-4 -0.289367,-0.0089 -0.430107,-0.08167 -0.126871,-0.06559 -0.613245,-0.536441 -2.487541,-2.40814 l -2.329835,-2.326606 -2.3440002,2.342633 c -1.9552844,1.954144 -2.3677758,2.353137 -2.4873694,2.405973 -0.1774625,0.0784 -0.5195324,0.09948 -0.6932136,0.04271 z"
     id="path1513" /><path
     style="fill:#25c0d4;fill-opacity:1;stroke-width:0.00390625"
     d="M 10.623047,8.9863281 C 9.1831624,7.5464405 9.0071473,7.3691406 9.0175781,7.3691406 c 0.010393,0 0.1933642,0.1816486 1.6211649,1.609446 l 1.60945,1.6094464 1.612193,-1.6097402 c 0.990606,-0.9890994 1.614502,-1.6092501 1.618182,-1.6084695 0.0037,7.913e-4 -0.07471,0.081635 -0.20797,0.2143355 -0.117677,0.1171858 -0.846307,0.8444807 -1.619178,1.6162109 -0.772872,0.7717303 -1.406564,1.4031463 -1.408205,1.4031463 -0.0016,0 -0.730717,-0.7277348 -1.620168,-1.6171879 z"
     id="path1515" /><path
     style="fill:#25c0d4;fill-opacity:1;stroke-width:0.00390625"
     d="m 10.563972,12.291496 c 0.158709,-0.158719 0.287904,-0.290499 0.2871,-0.292842 -8.05e-4,-0.0023 -0.63436,-0.638449 -1.4079022,-1.413567 C 8.669628,9.8099687 7.8175284,8.9557098 7.5496151,8.6867336 L 7.0625,8.1976859 V 7.7834133 7.3691406 h 0.9672461 0.9672461 l 1.6223328,1.6194065 c 0.892282,0.8906735 1.623113,1.6197259 1.624067,1.6201169 9.54e-4,3.91e-4 0.732256,-0.7283417 1.625116,-1.6194062 l 1.623381,-1.6201172 h 0.127103 0.127102 V 8.6253339 9.8815273 L 14.689524,10.940764 13.632955,12 l 0.289958,0.290039 0.289958,0.290039 h -1.96873 -1.968731 z"
     id="path1517" /><path
     style="fill:#25c0d4;fill-opacity:1;stroke-width:0.00390625"
     d="m 10.547861,12.291982 c 0.158442,-0.158452 0.288077,-0.289849 0.288077,-0.291993 0,-0.0021 -0.8490239,-0.85292 -1.8867192,-1.890614 C 7.5690926,8.7292511 7.0625,8.2203303 7.0625,8.2139854 c 0,-0.00638 0.2131572,0.2049465 0.8057494,0.7988266 0.4431621,0.4441253 1.2948439,1.297614 1.8926262,1.896641 l 1.0868774,1.08914 -0.288118,0.290743 c -0.158465,0.159908 -0.290757,0.290742 -0.293984,0.290742 -0.0032,0 0.123769,-0.129643 0.28221,-0.288096 z"
     id="path1519" /><path
     style="fill:#25c0d4;fill-opacity:1;stroke-width:0.00390625"
     d="M 6.6538971,7.8135228 C 6.4089329,7.5681647 6.2371341,7.3930498 6.2217623,7.3730469 6.0702869,7.1759358 5.9939223,6.9305541 6.0109874,6.6957659 6.0211722,6.5556397 6.0499597,6.4465156 6.1090035,6.3242187 6.2232848,6.087509 6.4191291,5.9099702 6.6660156,5.8192703 c 0.04978,-0.018288 0.1390984,-0.041137 0.1953125,-0.049963 0.054394,-0.00854 0.1809194,-0.011681 0.2385542,-0.00592 0.2034193,0.020332 0.4035936,0.1054568 0.5544146,0.235768 0.057535,0.04971 1.381321,1.3753447 1.3701417,1.3720541 -0.0073,-0.00215 -0.00832,-0.00139 -0.00613,0.00451 C 9.0197521,7.3796214 8.8619774,7.2254599 8.6676946,7.03314 8.2251323,6.5950491 8.1247205,6.4965546 7.9784472,6.3570526 7.5417593,5.9405799 7.3844051,5.8227195 7.2282052,5.7951109 7.1962604,5.7894646 7.107079,5.7839588 6.9980469,5.7809015 c -0.1285833,-0.00361 -0.182235,0.00348 -0.283318,0.037399 -0.11927,0.040025 -0.2157434,0.096228 -0.3299633,0.1922285 -0.043237,0.03634 -0.1236984,0.1186985 -0.159538,0.1632994 -0.084574,0.105249 -0.1557482,0.2451657 -0.1759092,0.345808 -0.010848,0.054151 -0.01396,0.1127058 -0.014527,0.2733326 -5.956e-4,0.1685423 9.892e-4,0.1867146 0.021558,0.2471884 0.057846,0.1700749 0.2497329,0.3936688 0.9473724,1.1039156 0.039848,0.040568 0.069488,0.072747 0.065867,0.071509 -0.00362,-0.00124 -0.00714,-5.718e-4 -0.00783,0.00148 C 7.061076,8.2191158 6.8775375,8.0375229 6.6538971,7.8135228 Z"
     id="path1521" /><path
     style="fill:#25c0d4;fill-opacity:1;stroke-width:0.00390625"
     d=""
     id="path1523" /><path
     style="fill:#25c0d4;fill-opacity:1;stroke-width:0.00390625"
     d=""
     id="path1525" /><path
     style="fill:#25c0d4;fill-opacity:1;stroke-width:0.00390625"
     d=""
     id="path1527" /><path
     style="fill:#25c0d4;fill-opacity:1;stroke-width:0.00390625"
     d="M 7.6776595,8.8157721 C 6.7288102,7.8625232 6.4938618,7.6199116 6.2940846,7.3870696 6.111793,7.1746071 6.0420565,7.0489741 6.0383348,6.9263263 c -6.712e-4,-0.022118 -8.99e-4,-0.021401 -0.00293,0.00922 l -0.0022,0.033203 -0.00929,-0.054687 C 6.0111132,6.838742 6.0083682,6.7284929 6.0173555,6.6507676 6.0325452,6.5194013 6.0609805,6.4253818 6.121732,6.3056526 6.2331495,6.0860711 6.4183151,5.9186212 6.6497973,5.82811 6.6968953,5.809694 6.7909249,5.783832 6.8496094,5.773152 6.8962914,5.764652 7.062265,5.760945 7.115664,5.767202 7.2969746,5.788447 7.4848428,5.866726 7.6289062,5.981053 7.6833112,6.024228 9.0280473,7.3691401 9.0168119,7.3691401 9.0130419,7.3691401 8.8276488,7.1877845 8.38587,6.7519526 7.5954348,5.9721581 7.4074288,5.8180211 7.2144064,5.7915263 7.1085248,5.7769927 6.8695167,5.7763018 6.8065483,5.7903473 6.7286505,5.8077229 6.6301128,5.8449473 6.5644531,5.8818031 6.4503725,5.9458383 6.3234297,6.0530174 6.233043,6.161616 6.16412,6.2444263 6.0983859,6.3587767 6.0667375,6.4509196 c -0.025357,0.073826 -0.03049,0.1219468 -0.032945,0.308846 -0.00109,0.082717 -5.472e-4,0.1252743 0.00134,0.1054688 0.00174,-0.018262 0.00333,-0.077149 0.00355,-0.1308594 7.675e-4,-0.1917307 0.011651,-0.2465723 0.074422,-0.375 C 6.162905,6.2574753 6.2238631,6.1730959 6.3105469,6.0860654 6.4396561,5.9564397 6.5728772,5.869936 6.71875,5.8210091 c 0.068529,-0.022985 0.1257173,-0.033812 0.1933594,-0.036606 0.058022,-0.0024 0.230229,0.00423 0.2890482,0.011119 0.1907078,0.022344 0.3704876,0.1655469 1.0703268,0.8525617 0.1095703,0.107562 0.7739365,0.7690762 1.4763692,1.470031 L 11.025004,9.3925781 H 9.6384038 8.2518034 Z"
     id="path1529" /><path
     style="fill:#25c0d4;fill-opacity:1;stroke-width:0.00390625"
     d=""
     id="path1531" /><path
     style="fill:#25c0d4;fill-opacity:1;stroke-width:0.00390625"
     d="m 17.131128,8.5009766 c 0.04308,-0.043506 0.185444,-0.1872705 0.31637,-0.319477 0.609198,-0.6151519 0.833474,-0.8538762 0.910206,-0.9688419 0.02993,-0.044838 0.04204,-0.070857 0.06533,-0.1403921 0.03458,-0.1031944 0.04406,-0.1771023 0.04059,-0.3164062 -0.0013,-0.050488 -0.0051,-0.1137696 -0.0085,-0.140625 -0.0274,-0.2152462 -0.104845,-0.3841363 -0.240998,-0.5255976 -0.07763,-0.080659 -0.167179,-0.1464836 -0.285906,-0.2101656 -0.156732,-0.084067 -0.19335,-0.090824 -0.473003,-0.087285 -0.182522,0.00231 -0.215908,0.00585 -0.285295,0.03025 -0.04921,0.017306 -0.127268,0.05793 -0.16271,0.084683 -0.138441,0.1044996 -0.454869,0.4065475 -1.252044,1.1951448 -0.16952,0.1676953 -0.274894,0.2691696 -0.277709,0.2674298 -0.0055,-0.00342 1.345851,-1.3548808 1.390996,-1.3910834 0.105655,-0.084727 0.249155,-0.1559894 0.381842,-0.1896237 0.08698,-0.022049 0.130644,-0.026922 0.24189,-0.026996 0.111296,-7.45e-5 0.153929,0.00468 0.241809,0.026987 0.387291,0.098292 0.675091,0.4100816 0.742502,0.8043954 0.04015,0.2348661 -0.0097,0.4865292 -0.136538,0.6898299 -0.06008,0.096263 -0.0522,0.087955 -0.673497,0.709961 -0.556383,0.5570138 -0.586947,0.586914 -0.599953,0.586914 -0.01354,0 -0.01277,-9.435e-4 0.06462,-0.079102 z"
     id="path1533" /><path
     style="fill:#25c0d4;fill-opacity:1;stroke-width:0.00390625"
     d=""
     id="path1535" /><path
     style="fill:#25c0d4;fill-opacity:1;stroke-width:0.00390625"
     d="m 15.593541,10.041711 c 1.396469,-1.3990989 1.461933,-1.4640706 1.473454,-1.4623797 0.01155,0.0017 -0.04943,0.063253 -1.450319,1.4641487 -1.259751,1.259755 -1.46391,1.462379 -1.473454,1.462379 -0.0096,0 0.185563,-0.197012 1.450319,-1.464148 z"
     id="path1537" /><path
     style="fill:#25c0d4;fill-opacity:1;stroke-width:0.00390625"
     d="m 14.917139,13.281636 -1.280127,-1.281951 0.255713,-0.255691 c 0.140642,-0.14063 0.255713,-0.25385 0.255713,-0.2516 0,0.0022 -0.0022,0.0064 -0.0049,0.0092 -0.004,0.0042 -0.0031,0.0046 0.0049,0.0024 0.0059,-0.0017 -0.08756,0.0947 -0.239259,0.246628 l -0.249024,0.249392 1.282225,1.28223 c 1.207887,1.207891 1.281432,1.282204 1.268555,1.281796 -0.01282,-4.06e-4 -0.09305,-0.07992 -1.293796,-1.282384 z"
     id="path1539" /><path
     style="fill:#25c0d4;fill-opacity:1;stroke-width:0.00390625"
     d=""
     id="path1541" /><path
     style="fill:#25c0d4;fill-opacity:1;stroke-width:0.00390625"
     d=""
     id="path1543" /><path
     style="fill:#25c0d4;fill-opacity:1;stroke-width:0.00390625"
     d=""
     id="path1545" /><path
     style="fill:#25c0d4;fill-opacity:1;stroke-width:0.00390625"
     d="m 9.5039063,14.428196 v -1.073758 l 0.6738277,-0.675901 c 0.370606,-0.371745 0.673829,-0.677214 0.673829,-0.678819 0,-0.0016 -0.303223,-0.306647 -0.673829,-0.67787 L 9.5039063,10.646896 v -0.17794 -0.17794 h 1.2099787 1.209979 l 0.158167,0.158203 c 0.08699,0.08701 0.159925,0.158203 0.162074,0.158203 0.0021,0 0.07512,-0.07119 0.16215,-0.158209 l 0.158244,-0.158208 1.385409,9.82e-4 1.385408,9.82e-4 -0.851075,0.853937 -0.851074,0.853937 1.576555,1.579657 c 0.867105,0.868811 1.6532,1.656561 1.746876,1.750555 l 0.170322,0.170898 h -1.382837 -1.382837 l -1.058553,-1.056002 -1.058552,-1.056003 -1.058347,1.056003 -1.058346,1.056002 H 9.815677 9.5039063 Z"
     id="path1547" /><path
     style="fill:#25c0d4;fill-opacity:1;stroke-width:0.00390625"
     d="m 11.1875,14.449219 c 0.579001,-0.579004 1.053974,-1.052735 1.055496,-1.052735 0.006,0 2.109012,2.103368 2.104542,2.104857 -0.0026,8.73e-4 -0.475635,-0.469285 -1.051149,-1.044796 L 12.25,13.410162 11.204099,14.456057 c -0.926869,0.926864 -1.047234,1.045896 -1.057615,1.045896 -0.01044,0 0.102869,-0.114582 1.041016,-1.052734 z"
     id="path1549" /><path
     style="fill:#25c0d4;fill-opacity:1;stroke-width:0.00390625"
     d="m 17.410156,18.237647 c -0.200764,-0.01964 -0.37447,-0.08825 -0.535156,-0.211366 -0.03793,-0.02906 -2.534371,-2.522018 -2.528792,-2.525261 0.0019,-0.0011 0.354249,0.347163 0.783062,0.773892 1.308699,1.302335 1.704514,1.685485 1.878542,1.818435 0.03526,0.02694 0.125232,0.07253 0.173895,0.08812 0.06494,0.0208 0.101488,0.02429 0.277002,0.02646 0.275251,0.0034 0.313531,-0.0037 0.469511,-0.08739 0.118777,-0.06371 0.208269,-0.129502 0.285999,-0.210262 0.177897,-0.184833 0.257707,-0.421005 0.249526,-0.738392 -0.0023,-0.0909 -0.0099,-0.144659 -0.02988,-0.211522 -0.02869,-0.0962 -0.05669,-0.15201 -0.111096,-0.221485 -0.127666,-0.163028 -0.440517,-0.485792 -1.521503,-1.569712 -0.338115,-0.339032 -0.612989,-0.616422 -0.61083,-0.616422 0.0022,0 0.0061,0.0026 0.0088,0.0059 0.0068,0.0082 0.01596,0.0076 0.01304,-9.77e-4 -0.0035,-0.01023 2.006053,1.99901 2.041816,2.041504 0.201803,0.239784 0.279801,0.555807 0.212226,0.859863 -0.04058,0.182606 -0.128056,0.34341 -0.261062,0.479921 -0.08984,0.09221 -0.1847,0.159219 -0.300222,0.212079 -0.09138,0.04181 -0.216161,0.07533 -0.316832,0.08511 -0.0392,0.0038 -0.145525,0.0047 -0.178033,0.0016 z"
     id="path1551" /><path
     style="fill:#25c0d4;fill-opacity:1;stroke-width:0.00390625"
     d="M 6.8920675,18.234125 C 6.6685019,18.20702 6.4598871,18.106099 6.3028901,17.949102 5.9398384,17.58605 5.9099484,17.011784 6.2333619,16.613281 c 0.042867,-0.05282 2.4551716,-2.46457 2.4624406,-2.461875 0.00337,0.0013 -0.2630819,0.270889 -0.7155618,0.724121 -1.2250601,1.227096 -1.4910509,1.500315 -1.6977128,1.743844 -0.1783804,0.210203 -0.2372495,0.316771 -0.2469443,0.447035 -0.00549,0.07381 0.00141,0.307395 0.010984,0.371872 0.028506,0.191905 0.099387,0.319417 0.2754735,0.495566 0.1162274,0.116268 0.2066003,0.177486 0.3393972,0.229906 0.1012369,0.03996 0.1679111,0.05069 0.3151244,0.05072 0.1153011,3.9e-5 0.176764,-0.0056 0.274506,-0.02519 0.1053656,-0.0211 0.1726795,-0.04736 0.2267597,-0.08846 0.1790919,-0.136118 0.633241,-0.578082 2.1364296,-2.079107 0.2916504,-0.291231 0.530273,-0.527197 0.530273,-0.52437 0,0.0035 0.0028,0.0043 0.0088,0.0026 0.01125,-0.0033 -2.4507898,2.460328 -2.5029292,2.504552 -0.1251508,0.10615 -0.2848197,0.183519 -0.4458541,0.216042 -0.096425,0.01947 -0.2198829,0.02486 -0.312469,0.01364 z"
     id="path1553" /><path
     style="fill:#25c0d4;fill-opacity:1;stroke-width:0.00390625"
     d="m 8.6941026,14.151593 c -0.00123,-0.002 0.3516267,-0.357483 0.7841281,-0.78998 0.4325013,-0.432497 0.7873733,-0.784729 0.7886043,-0.782737 0.0012,0.002 -0.3516268,0.357482 -0.7841282,0.78998 -0.4325013,0.432497 -0.7873732,0.784729 -0.7886042,0.782737 z"
     id="path1555" /><path
     style="fill:#25c0d4;fill-opacity:1;stroke-width:0.00390625"
     d=""
     id="path1557" /></svg>
