<?xml version="1.0" encoding="UTF-8"?>
<svg id="Ebene_1" data-name="Ebene 1" xmlns="http://www.w3.org/2000/svg" version="1.1" viewBox="0 0 256 256">
  <defs>
    <style>
      .cls-1 {
        fill: #2a3647;
        stroke-width: 0px;
      }
    </style>
  </defs>
  <path class="cls-1" d="M150.5,16.8c-6.6-22.4-38.4-22.4-45,0l-1.6,5.4c-3.7,12.4-16.7,19.5-29.1,15.9-1.6-.5-3.1-1.1-4.6-1.9l-5-2.7c-20.5-11.2-43,11.3-31.8,31.8l2.7,5c7.1,13.1.4,29.5-14,33.7l-5.4,1.6c-22.4,6.6-22.4,38.4,0,45l5.4,1.6c12.4,3.7,19.5,16.7,15.9,29.1-.5,1.6-1.1,3.1-1.9,4.6l-2.7,5c-11.2,20.5,11.3,43,31.8,31.8l5-2.7c11.4-6.2,25.6-2,31.8,9.4.8,1.5,1.4,3,1.9,4.6l1.6,5.4c6.6,22.4,38.4,22.4,45,0l1.6-5.4c3.7-12.4,16.7-19.5,29.1-15.9,1.6.5,3.1,1.1,4.6,1.9l5,2.7c20.5,11.2,43-11.3,31.8-31.8l-2.7-5c-6.2-11.4-2-25.6,9.4-31.8,1.5-.8,3-1.4,4.6-1.9l5.4-1.6c22.4-6.6,22.4-38.4,0-45l-5.4-1.6c-12.4-3.7-19.5-16.7-15.9-29.1.5-1.6,1.1-3.1,1.9-4.6l2.7-5c11.2-20.5-11.3-43-31.8-31.8l-5,2.7c-11.4,6.2-25.6,2-31.8-9.4-.8-1.5-1.4-3-1.9-4.6l-1.6-5.4h0ZM128,174.9c-25.9,0-46.9-21-46.9-46.9s21-46.9,46.9-46.9c25.9,0,46.9,21,46.8,46.9,0,25.9-21,46.8-46.8,46.8h0Z"/>
</svg>