<?xml version="1.0" encoding="UTF-8" standalone="no"?>
<svg
   width="21"
   height="16"
   viewBox="0 0 21 16"
   fill="none"
   version="1.1"
   id="svg745"
   sodipodi:docname="medium-icon.svg"
   inkscape:version="1.2.2 (732a01da63, 2022-12-09)"
   xmlns:inkscape="http://www.inkscape.org/namespaces/inkscape"
   xmlns:sodipodi="http://sodipodi.sourceforge.net/DTD/sodipodi-0.dtd"
   xmlns="http://www.w3.org/2000/svg"
   xmlns:svg="http://www.w3.org/2000/svg">
  <defs
     id="defs749">
    <clipPath
       id="clip0_155362_4287">
      <rect
         width="20"
         height="7.4509802"
         fill="#ffffff"
         transform="translate(104.249,24.2744)"
         id="rect207"
         x="0"
         y="0" />
    </clipPath>
  </defs>
  <sodipodi:namedview
     id="namedview747"
     pagecolor="#ffffff"
     bordercolor="#000000"
     borderopacity="0.25"
     inkscape:showpageshadow="2"
     inkscape:pageopacity="0.0"
     inkscape:pagecheckerboard="0"
     inkscape:deskcolor="#d1d1d1"
     showgrid="false"
     inkscape:zoom="26.15625"
     inkscape:cx="7.8375149"
     inkscape:cy="7.4934289"
     inkscape:window-width="1920"
     inkscape:window-height="1017"
     inkscape:window-x="-8"
     inkscape:window-y="-8"
     inkscape:window-maximized="1"
     inkscape:current-layer="svg745" />
  <g
     clip-path="url(#clip0_155362_4287)"
     id="g205"
     style="fill:#ffa800;fill-opacity:1"
     transform="translate(-103.69703,-19.818249)">
    <path
       d="m 123.153,31.7253 h -17.809 c -0.29,0 -0.569,-0.1163 -0.774,-0.3233 -0.206,-0.207 -0.321,-0.4878 -0.321,-0.7806 0,-0.2927 0.115,-0.5735 0.321,-0.7805 0.205,-0.207 0.484,-0.3233 0.774,-0.3233 h 17.809 c 0.29,0 0.569,0.1163 0.775,0.3233 0.205,0.207 0.321,0.4878 0.321,0.7805 0,0.2928 -0.116,0.5736 -0.321,0.7806 -0.206,0.207 -0.485,0.3233 -0.775,0.3233 z"
       fill="white"
       id="path201"
       style="fill:#ffa800;fill-opacity:1" />
    <path
       d="m 123.153,26.4821 h -17.809 c -0.29,0 -0.569,-0.1163 -0.774,-0.3233 -0.206,-0.207 -0.321,-0.4878 -0.321,-0.7805 0,-0.2928 0.115,-0.5736 0.321,-0.7806 0.205,-0.207 0.484,-0.3233 0.774,-0.3233 h 17.809 c 0.29,0 0.569,0.1163 0.775,0.3233 0.205,0.207 0.321,0.4878 0.321,0.7806 0,0.2927 -0.116,0.5735 -0.321,0.7805 -0.206,0.207 -0.485,0.3233 -0.775,0.3233 z"
       fill="white"
       id="path203"
       style="fill:#ffa800;fill-opacity:1" />
  </g>
</svg>
