<?xml version="1.0" encoding="utf-8"?>
<!-- Generator: Adobe Illustrator 28.3.0, SVG Export Plug-In . SVG Version: 6.00 Build 0)  -->
<svg version="1.1" id="Ebene_1" xmlns="http://www.w3.org/2000/svg" xmlns:xlink="http://www.w3.org/1999/xlink" x="0px" y="0px"
	 viewBox="0 0 17 6.3" style="enable-background:new 0 0 17 6.3;" xml:space="preserve">
<style type="text/css">
	.st0{fill:#FFA800;}
</style>
<path class="st0" d="M16.1,6.3H0.9C0.7,6.3,0.4,6.2,0.3,6C0.1,5.9,0,5.6,0,5.4c0-0.2,0.1-0.5,0.3-0.7s0.4-0.3,0.7-0.3h15.1
	c0.2,0,0.5,0.1,0.7,0.3S17,5.1,17,5.4c0,0.2-0.1,0.5-0.3,0.7C16.6,6.2,16.3,6.3,16.1,6.3z"/>
<path class="st0" d="M16.1,1.9H0.9c-0.2,0-0.5-0.1-0.7-0.3C0.1,1.4,0,1.2,0,0.9c0-0.2,0.1-0.5,0.3-0.7S0.7,0,0.9,0h15.1
	c0.2,0,0.5,0.1,0.7,0.3S17,0.7,17,0.9c0,0.2-0.1,0.5-0.3,0.7C16.6,1.8,16.3,1.9,16.1,1.9z"/>
</svg>
