<?xml version="1.0" encoding="UTF-8"?>
<svg id="Ebene_1" data-name="Ebene 1" xmlns="http://www.w3.org/2000/svg" version="1.1" xmlns:xlink="http://www.w3.org/1999/xlink" viewBox="0 0 24 24">
  <defs>
    <style>
      .cls-1 {
        fill: #d9d9d9;
      }

      .cls-1, .cls-2 {
        stroke-width: 0px;
      }

      .cls-2 {
        fill: #2a3647;
      }

      .cls-3 {
        mask: url(#mask);
      }
    </style>
    <mask id="mask" x="2.3" y="2.3" width="19.3" height="19.3" maskUnits="userSpaceOnUse">
      <g id="mask0_75880_8799" data-name="mask0 75880 8799">
        <rect class="cls-1" x="2.3" y="2.3" width="19.3" height="19.3"/>
      </g>
    </mask>
  </defs>
  <g class="cls-3">
    <path class="cls-2" d="M12,13.1l-3.9,3.9c-.1.1-.3.2-.6.2s-.4,0-.6-.2c-.1-.1-.2-.3-.2-.6s0-.4.2-.6l3.9-3.9-3.9-3.9c-.1-.1-.2-.3-.2-.6s0-.4.2-.6.3-.2.6-.2.4,0,.6.2l3.9,3.9,3.9-3.9c.1-.1.3-.2.6-.2s.4,0,.6.2c.1.1.2.3.2.6s0,.4-.2.6l-3.9,3.9,3.9,3.9c.1.1.2.3.2.6s0,.4-.2.6-.3.2-.6.2-.4,0-.6-.2l-3.9-3.9Z"/>
  </g>
</svg>